<?xml version="1.0" encoding="utf-8"?>
<!-- Generator: Adobe Illustrator 19.2.0, SVG Export Plug-In . SVG Version: 6.00 Build 0)  -->
<svg version="1.1" id="Layer_1" xmlns="http://www.w3.org/2000/svg" xmlns:xlink="http://www.w3.org/1999/xlink" x="0px" y="0px"
	 viewBox="0 0 1366 768" style="enable-background:new 0 0 1366 768;" xml:space="preserve">
<style type="text/css">
	.st0{fill:#FFFFFF;stroke:#000000;stroke-miterlimit:10;}
</style>
<circle class="st0" cx="683" cy="384" r="351.4"/>
<circle class="st0" cx="683" cy="384" r="284.4"/>
<circle class="st0" cx="683" cy="384" r="218.7"/>
<circle class="st0" cx="683" cy="384" r="154"/>
<circle class="st0" cx="128.2" cy="125.7" r="7.5"/>
<circle class="st0" cx="683" cy="230" r="27.5"/>
<circle class="st0" cx="683" cy="384" r="27.5"/>
<circle class="st0" cx="683" cy="538" r="27.5"/>
<circle class="st0" cx="837" cy="384" r="27.5"/>
<circle class="st0" cx="529" cy="384" r="27.5"/>
<circle class="st0" cx="758.3" cy="249" r="27.5"/>
<circle class="st0" cx="815.8" cy="304" r="27.5"/>
<circle class="st0" cx="815.8" cy="464" r="27.5"/>
<circle class="st0" cx="758.3" cy="519" r="27.5"/>
<circle class="st0" cx="607.7" cy="519" r="27.5"/>
<circle class="st0" cx="552.7" cy="464" r="27.5"/>
<circle class="st0" cx="552.7" cy="304" r="27.5"/>
<circle class="st0" cx="607.7" cy="249" r="27.5"/>
<circle class="st0" cx="683" cy="165.3" r="27.5"/>
<circle class="st0" cx="683" cy="99.6" r="27.5"/>
<circle class="st0" cx="683" cy="32.6" r="27.5"/>
<circle class="st0" cx="683" cy="602.7" r="27.5"/>
<circle class="st0" cx="683" cy="668.4" r="27.5"/>
<circle class="st0" cx="683" cy="735.4" r="27.5"/>
<circle class="st0" cx="901.7" cy="384" r="27.5"/>
<circle class="st0" cx="966.4" cy="384" r="27.5"/>
<circle class="st0" cx="1031.1" cy="384" r="27.5"/>
<circle class="st0" cx="464.3" cy="384" r="27.5"/>
<circle class="st0" cx="398.6" cy="384" r="27.5"/>
<circle class="st0" cx="331.6" cy="384" r="27.5"/>
<circle class="st0" cx="789.1" cy="195.9" r="27.5"/>
<circle class="st0" cx="823.4" cy="137.3" r="27.5"/>
<circle class="st0" cx="854.9" cy="77.3" r="27.5"/>
<circle class="st0" cx="874.2" cy="276.5" r="27.5"/>
<circle class="st0" cx="932.5" cy="249" r="27.5"/>
<circle class="st0" cx="993.9" cy="220.9" r="27.5"/>
<circle class="st0" cx="564.9" cy="194.4" r="27.5"/>
<circle class="st0" cx="529" cy="137.8" r="27.5"/>
<circle class="st0" cx="497.7" cy="87.6" r="27.5"/>
<circle class="st0" cx="491.8" cy="276.5" r="27.5"/>
<circle class="st0" cx="426.1" cy="249" r="27.5"/>
<circle class="st0" cx="371.1" cy="221.5" r="27.5"/>
<circle class="st0" cx="491.8" cy="491.5" r="27.5"/>
<circle class="st0" cx="431" cy="519" r="27.5"/>
<circle class="st0" cx="372.1" cy="546.5" r="27.5"/>
<circle class="st0" cx="573" cy="574" r="27.5"/>
<circle class="st0" cx="537.7" cy="630.1" r="27.5"/>
<circle class="st0" cx="502" cy="687.3" r="27.5"/>
<circle class="st0" cx="785.8" cy="575.2" r="27.5"/>
<circle class="st0" cx="817.1" cy="632.7" r="27.5"/>
<circle class="st0" cx="851" cy="695.9" r="27.5"/>
<circle class="st0" cx="868.3" cy="498.7" r="27.5"/>
<circle class="st0" cx="923.3" cy="538" r="27.5"/>
<circle class="st0" cx="978.3" cy="575.2" r="27.5"/>
<circle class="st0" cx="754.9" cy="107.3" r="27.5"/>
<circle class="st0" cx="606" cy="110.3" r="27.5"/>
<circle class="st0" cx="889.1" cy="184.4" r="27.5"/>
<circle class="st0" cx="960" cy="316.5" r="27.5"/>
<circle class="st0" cx="956.7" cy="461" r="27.5"/>
<circle class="st0" cx="878.5" cy="591.9" r="27.5"/>
<circle class="st0" cx="755.7" cy="660.2" r="27.5"/>
<circle class="st0" cx="610" cy="660.2" r="27.5"/>
<circle class="st0" cx="481.9" cy="577.7" r="27.5"/>
<circle class="st0" cx="406" cy="451.5" r="27.5"/>
<circle class="st0" cx="409.3" cy="314" r="27.5"/>
<circle class="st0" cx="474" cy="190.3" r="27.5"/>
<circle class="st0" cx="590.3" cy="44.6" r="27.5"/>
<circle class="st0" cx="767.7" cy="41.6" r="27.5"/>
<circle class="st0" cx="934.9" cy="135.9" r="27.5"/>
<circle class="st0" cx="1024.9" cy="301.5" r="27.5"/>
<circle class="st0" cx="1021.4" cy="479.6" r="27.5"/>
<circle class="st0" cx="419" cy="142.6" r="27.5"/>
<circle class="st0" cx="923.3" cy="640.9" r="27.5"/>
<circle class="st0" cx="767" cy="723.4" r="27.5"/>
<circle class="st0" cx="590.3" cy="723.4" r="27.5"/>
<circle class="st0" cx="426.1" cy="630.2" r="27.5"/>
<circle class="st0" cx="341.1" cy="465.2" r="27.5"/>
<circle class="st0" cx="343.6" cy="301.5" r="27.5"/>
</svg>
