<?xml version="1.0" encoding="utf-8"?>
<!-- Generator: Adobe Illustrator 18.0.0, SVG Export Plug-In . SVG Version: 6.00 Build 0)  -->
<!DOCTYPE svg PUBLIC "-//W3C//DTD SVG 1.1//EN" "http://www.w3.org/Graphics/SVG/1.1/DTD/svg11.dtd">
<svg version="1.1" id="Layer_1" xmlns="http://www.w3.org/2000/svg" xmlns:xlink="http://www.w3.org/1999/xlink" x="0px" y="0px"
	 viewBox="0 0 612 792" enable-background="new 0 0 612 792" xml:space="preserve">
<circle fill="#FFFFFF" stroke="#000000" stroke-miterlimit="10" cx="306" cy="396" r="157.4"/>
<circle fill="#FFFFFF" stroke="#000000" stroke-miterlimit="10" cx="306" cy="396" r="127.4"/>
<circle fill="#FFFFFF" stroke="#000000" stroke-miterlimit="10" cx="306" cy="396" r="98"/>
<circle fill="#FFFFFF" stroke="#000000" stroke-miterlimit="10" cx="306" cy="298" r="12.3"/>
<circle fill="#FFFFFF" stroke="#000000" stroke-miterlimit="10" cx="306" cy="268.6" r="12.3"/>
<circle fill="#FFFFFF" stroke="#000000" stroke-miterlimit="10" cx="306" cy="238.6" r="12.3"/>
<circle fill="#FFFFFF" stroke="#000000" stroke-miterlimit="10" cx="306" cy="494" r="12.3"/>
<circle fill="#FFFFFF" stroke="#000000" stroke-miterlimit="10" cx="306" cy="523.4" r="12.3"/>
<circle fill="#FFFFFF" stroke="#000000" stroke-miterlimit="10" cx="306" cy="553.4" r="12.3"/>
<circle fill="#FFFFFF" stroke="#000000" stroke-miterlimit="10" cx="404" cy="396" r="12.3"/>
<circle fill="#FFFFFF" stroke="#000000" stroke-miterlimit="10" cx="433" cy="396" r="12.3"/>
<circle fill="#FFFFFF" stroke="#000000" stroke-miterlimit="10" cx="462" cy="396" r="12.3"/>
<circle fill="#FFFFFF" stroke="#000000" stroke-miterlimit="10" cx="208" cy="396" r="12.3"/>
<circle fill="#FFFFFF" stroke="#000000" stroke-miterlimit="10" cx="178.6" cy="396" r="12.3"/>
<circle fill="#FFFFFF" stroke="#000000" stroke-miterlimit="10" cx="148.6" cy="396" r="12.3"/>
<circle fill="#FFFFFF" stroke="#000000" stroke-miterlimit="10" cx="353.5" cy="311.7" r="12.3"/>
<circle fill="#FFFFFF" stroke="#000000" stroke-miterlimit="10" cx="368.9" cy="285.5" r="12.3"/>
<circle fill="#FFFFFF" stroke="#000000" stroke-miterlimit="10" cx="383" cy="258.6" r="12.3"/>
<circle fill="#FFFFFF" stroke="#000000" stroke-miterlimit="10" cx="391.7" cy="347.8" r="12.3"/>
<circle fill="#FFFFFF" stroke="#000000" stroke-miterlimit="10" cx="417.8" cy="335.5" r="12.3"/>
<circle fill="#FFFFFF" stroke="#000000" stroke-miterlimit="10" cx="445.3" cy="322.9" r="12.3"/>
<circle fill="#FFFFFF" stroke="#000000" stroke-miterlimit="10" cx="253.1" cy="311.1" r="12.3"/>
<circle fill="#FFFFFF" stroke="#000000" stroke-miterlimit="10" cx="237" cy="285.7" r="12.3"/>
<circle fill="#FFFFFF" stroke="#000000" stroke-miterlimit="10" cx="223" cy="263.2" r="12.3"/>
<circle fill="#FFFFFF" stroke="#000000" stroke-miterlimit="10" cx="220.3" cy="347.8" r="12.3"/>
<circle fill="#FFFFFF" stroke="#000000" stroke-miterlimit="10" cx="190.9" cy="335.5" r="12.3"/>
<circle fill="#FFFFFF" stroke="#000000" stroke-miterlimit="10" cx="166.3" cy="323.2" r="12.3"/>
<circle fill="#FFFFFF" stroke="#000000" stroke-miterlimit="10" cx="220.3" cy="444.2" r="12.3"/>
<circle fill="#FFFFFF" stroke="#000000" stroke-miterlimit="10" cx="193.1" cy="456.5" r="12.3"/>
<circle fill="#FFFFFF" stroke="#000000" stroke-miterlimit="10" cx="166.7" cy="468.8" r="12.3"/>
<circle fill="#FFFFFF" stroke="#000000" stroke-miterlimit="10" cx="256.7" cy="481.1" r="12.3"/>
<circle fill="#FFFFFF" stroke="#000000" stroke-miterlimit="10" cx="240.9" cy="506.3" r="12.3"/>
<circle fill="#FFFFFF" stroke="#000000" stroke-miterlimit="10" cx="224.9" cy="531.9" r="12.3"/>
<circle fill="#FFFFFF" stroke="#000000" stroke-miterlimit="10" cx="352.1" cy="481.7" r="12.3"/>
<circle fill="#FFFFFF" stroke="#000000" stroke-miterlimit="10" cx="366.1" cy="507.4" r="12.3"/>
<circle fill="#FFFFFF" stroke="#000000" stroke-miterlimit="10" cx="381.3" cy="535.7" r="12.3"/>
<circle fill="#FFFFFF" stroke="#000000" stroke-miterlimit="10" cx="389" cy="447.4" r="12.3"/>
<circle fill="#FFFFFF" stroke="#000000" stroke-miterlimit="10" cx="413.7" cy="465" r="12.3"/>
<circle fill="#FFFFFF" stroke="#000000" stroke-miterlimit="10" cx="438.3" cy="481.7" r="12.3"/>
<circle fill="#FFFFFF" stroke="#000000" stroke-miterlimit="10" cx="338.2" cy="272" r="12.3"/>
<circle fill="#FFFFFF" stroke="#000000" stroke-miterlimit="10" cx="271.5" cy="273.4" r="12.3"/>
<circle fill="#FFFFFF" stroke="#000000" stroke-miterlimit="10" cx="398.3" cy="306.6" r="12.3"/>
<circle fill="#FFFFFF" stroke="#000000" stroke-miterlimit="10" cx="430.1" cy="365.8" r="12.3"/>
<circle fill="#FFFFFF" stroke="#000000" stroke-miterlimit="10" cx="428.6" cy="430.5" r="12.3"/>
<circle fill="#FFFFFF" stroke="#000000" stroke-miterlimit="10" cx="393.6" cy="489.1" r="12.3"/>
<circle fill="#FFFFFF" stroke="#000000" stroke-miterlimit="10" cx="338.6" cy="519.7" r="12.3"/>
<circle fill="#FFFFFF" stroke="#000000" stroke-miterlimit="10" cx="273.3" cy="519.7" r="12.3"/>
<circle fill="#FFFFFF" stroke="#000000" stroke-miterlimit="10" cx="215.9" cy="482.8" r="12.3"/>
<circle fill="#FFFFFF" stroke="#000000" stroke-miterlimit="10" cx="181.9" cy="426.2" r="12.3"/>
<circle fill="#FFFFFF" stroke="#000000" stroke-miterlimit="10" cx="183.4" cy="364.6" r="12.3"/>
<circle fill="#FFFFFF" stroke="#000000" stroke-miterlimit="10" cx="212.4" cy="309.2" r="12.3"/>
<circle fill="#FFFFFF" stroke="#000000" stroke-miterlimit="10" cx="264.5" cy="243.9" r="12.3"/>
<circle fill="#FFFFFF" stroke="#000000" stroke-miterlimit="10" cx="343.9" cy="242.6" r="12.3"/>
<circle fill="#FFFFFF" stroke="#000000" stroke-miterlimit="10" cx="418.9" cy="284.8" r="12.3"/>
<circle fill="#FFFFFF" stroke="#000000" stroke-miterlimit="10" cx="459.2" cy="359" r="12.3"/>
<circle fill="#FFFFFF" stroke="#000000" stroke-miterlimit="10" cx="457.6" cy="438.8" r="12.3"/>
<circle fill="#FFFFFF" stroke="#000000" stroke-miterlimit="10" cx="187.7" cy="287.8" r="12.3"/>
<circle fill="#FFFFFF" stroke="#000000" stroke-miterlimit="10" cx="413.7" cy="511.1" r="12.3"/>
<circle fill="#FFFFFF" stroke="#000000" stroke-miterlimit="10" cx="343.6" cy="548.1" r="12.3"/>
<circle fill="#FFFFFF" stroke="#000000" stroke-miterlimit="10" cx="264.5" cy="548.1" r="12.3"/>
<circle fill="#FFFFFF" stroke="#000000" stroke-miterlimit="10" cx="190.9" cy="506.3" r="12.3"/>
<circle fill="#FFFFFF" stroke="#000000" stroke-miterlimit="10" cx="152.8" cy="432.4" r="12.3"/>
<circle fill="#FFFFFF" stroke="#000000" stroke-miterlimit="10" cx="153.9" cy="359" r="12.3"/>
</svg>
